<svg width="24" height="24" viewBox="0 0 24 24" fill="none" xmlns="http://www.w3.org/2000/svg">
<path fill-rule="evenodd" clip-rule="evenodd" d="M13.3147 3.64775C12.4947 3.20075 11.5047 3.20075 10.6847 3.64775C8.96171 4.58575 5.30371 6.57675 3.04971 7.80275C2.44971 8.12975 2.09471 8.77575 2.14071 9.45775C2.18671 10.1398 2.62471 10.7318 3.26371 10.9758C5.64071 11.8808 9.45071 13.3317 11.0207 13.9307C11.6517 14.1707 12.3477 14.1707 12.9787 13.9307C14.5487 13.3317 18.3587 11.8808 20.7357 10.9758C21.3747 10.7318 21.8127 10.1398 21.8587 9.45775C21.9047 8.77575 21.5497 8.12975 20.9497 7.80275C18.6957 6.57675 15.0377 4.58575 13.3147 3.64775Z" fill="#929292"/>
<path fill-rule="evenodd" clip-rule="evenodd" d="M13.3147 3.64775C12.4947 3.20075 11.5047 3.20075 10.6847 3.64775C8.96171 4.58575 5.30371 6.57675 3.04971 7.80275C2.44971 8.12975 2.09471 8.77575 2.14071 9.45775C2.18671 10.1398 2.62471 10.7318 3.26371 10.9758L4.24902 11.3509V16.0005C4.24902 18.6235 6.37602 20.7505 8.99902 20.7505H14.999C17.622 20.7505 19.749 18.6235 19.749 16.0005V11.3514L20.251 11.1603V14.001C20.251 14.415 20.587 14.751 21.001 14.751C21.415 14.751 21.751 14.415 21.751 14.001V10.001C21.751 9.9868 21.7506 9.97271 21.7498 9.95873C21.8096 9.80049 21.8469 9.63206 21.8587 9.45775C21.9047 8.77575 21.5497 8.12975 20.9497 7.80275C18.6957 6.57675 15.0377 4.58575 13.3147 3.64775ZM5.74902 16.0005V11.9221C7.76693 12.6906 9.93219 13.5155 11.0207 13.9307C11.6517 14.1707 12.3477 14.1707 12.9787 13.9307C14.067 13.5155 16.2315 12.691 18.249 11.9226V16.0005C18.249 17.7955 16.794 19.2505 14.999 19.2505H8.99902C7.20402 19.2505 5.74902 17.7955 5.74902 16.0005ZM12.5977 4.96475L14.4313 5.9629C16.2629 6.95991 18.6109 8.23803 20.2317 9.12075C20.3177 9.16675 20.3687 9.25975 20.3617 9.35675C20.3557 9.45375 20.2927 9.53875 20.2017 9.57375C18.6513 10.1641 16.4912 10.9871 14.7407 11.654L12.4447 12.5287C12.1577 12.6377 11.8417 12.6377 11.5547 12.5287L9.25879 11.654C7.50829 10.9871 5.34816 10.1641 3.79771 9.57375C3.70671 9.53875 3.64371 9.45375 3.63771 9.35675C3.63071 9.25975 3.68171 9.16675 3.76771 9.12075C5.39014 8.23716 7.74118 6.95738 9.57353 5.95994L11.4017 4.96475C11.7747 4.76175 12.2247 4.76175 12.5977 4.96475Z" fill="#C9C9C9"/>
</svg>
