<svg width="24" height="24" viewBox="0 0 24 24" fill="none" xmlns="http://www.w3.org/2000/svg">
<path fill-rule="evenodd" clip-rule="evenodd" d="M5.334 10.931L5.506 9.899C6.002 6.928 8.572 4.75 11.585 4.75H11.586C14.51 4.75 17.028 6.814 17.601 9.681L17.642 9.888L18.338 10.062C20.343 10.563 21.75 12.364 21.75 14.431V14.434C21.75 17.094 19.594 19.25 16.934 19.25C13.838 19.25 9.615 19.25 6.632 19.25C5.47 19.25 4.355 18.788 3.533 17.967C2.712 17.145 2.25 16.03 2.25 14.868V14.867C2.25 13.131 3.361 11.589 5.008 11.04L5.334 10.931Z" fill="#929292"/>
<path fill-rule="evenodd" clip-rule="evenodd" d="M5.334 10.931L5.506 9.899C6.002 6.928 8.572 4.75 11.585 4.75H11.586C14.51 4.75 17.028 6.814 17.601 9.681L17.642 9.888L18.338 10.062C20.343 10.563 21.75 12.364 21.75 14.431C21.75 14.432 21.75 14.433 21.75 14.434C21.75 17.094 19.594 19.25 16.934 19.25C13.838 19.25 9.615 19.25 6.632 19.25C5.47 19.25 4.355 18.788 3.533 17.967C2.712 17.145 2.25 16.03 2.25 14.868V14.867C2.25 13.131 3.361 11.589 5.008 11.04L5.334 10.931ZM3.75 14.868V14.867C3.75 13.776 4.448 12.808 5.483 12.463C5.631 12.413 5.767 12.368 5.881 12.33C6.364 12.169 6.718 11.755 6.802 11.253C6.846 10.987 6.911 10.598 6.986 10.146C7.361 7.898 9.306 6.25 11.585 6.25H11.586C13.795 6.25 15.697 7.809 16.13 9.975C16.152 10.086 16.172 10.187 16.19 10.274C16.292 10.786 16.681 11.193 17.187 11.32C17.392 11.371 17.667 11.44 17.975 11.517C19.312 11.851 20.25 13.053 20.25 14.431C20.25 14.432 20.25 14.433 20.25 14.434C20.25 16.265 18.765 17.75 16.934 17.75C13.838 17.75 9.615 17.75 6.632 17.75C5.868 17.75 5.135 17.446 4.594 16.906C4.054 16.365 3.75 15.632 3.75 14.868Z" fill="#C9C9C9"/>
</svg>
