<svg width="134" height="134" viewBox="0 0 134 134" fill="none" xmlns="http://www.w3.org/2000/svg">
<path fill-rule="evenodd" clip-rule="evenodd" d="M67 12.5625C36.9561 12.5625 12.5625 36.9561 12.5625 67C12.5625 97.0439 36.9561 121.438 67 121.438C97.0439 121.438 121.438 97.0439 121.438 67C121.438 36.9561 97.0439 12.5625 67 12.5625Z" fill="#98E693"/>
<path fill-rule="evenodd" clip-rule="evenodd" d="M67 12.5625C36.9561 12.5625 12.5625 36.9561 12.5625 67C12.5625 97.0439 36.9561 121.438 67 121.438C97.0439 121.438 121.438 97.0439 121.438 67C121.438 36.9561 97.0439 12.5625 67 12.5625ZM67 20.9375C92.4209 20.9375 113.062 41.5791 113.062 67C113.062 92.4209 92.4209 113.062 67 113.062C41.5791 113.062 20.9375 92.4209 20.9375 67C20.9375 41.5791 41.5791 20.9375 67 20.9375Z" fill="white"/>
<path fill-rule="evenodd" clip-rule="evenodd" d="M61.4153 75.0357L83.5812 52.8754C85.2115 51.2395 87.8692 51.2395 89.4995 52.8754C91.1354 54.5058 91.1354 57.1634 89.4995 58.7938L64.3745 83.9188C62.7386 85.5547 60.0921 85.5547 58.4562 83.9188L47.2895 72.7521C45.6536 71.1218 45.6536 68.4641 47.2895 66.8338C48.9198 65.1979 51.5775 65.1979 53.2078 66.8338L61.4153 75.0357Z" fill="white"/>
</svg>
