<svg width="24" height="24" viewBox="0 0 24 24" fill="none" xmlns="http://www.w3.org/2000/svg">
<path fill-rule="evenodd" clip-rule="evenodd" d="M14 5.75C9.723 5.75 6.25 9.223 6.25 13.5C6.25 17.777 9.723 21.25 14 21.25C15.438 21.25 16.785 20.857 17.94 20.174C17.942 20.173 17.944 20.171 17.946 20.17C17.997 20.14 18.056 20.128 18.114 20.138H18.118C18.779 20.244 20.1 20.462 20.1 20.462C20.339 20.502 20.583 20.423 20.754 20.251C20.925 20.078 21.003 19.834 20.961 19.595L20.623 17.636C20.613 17.576 20.625 17.515 20.657 17.464C20.658 17.462 20.659 17.46 20.66 17.458C21.353 16.3 21.75 14.946 21.75 13.5C21.75 9.223 18.277 5.75 14 5.75Z" fill="#929292"/>
<path d="M13.888 15.55L13.927 15.551L13.959 15.547C14.101 15.528 14.671 15.412 14.677 14.804C14.677 14.795 14.677 14.763 14.681 14.72C15.716 14.398 16.469 13.432 16.469 12.292C16.469 10.889 15.33 9.75 13.927 9.75C12.885 9.75 11.989 10.377 11.597 11.275C11.431 11.654 11.604 12.096 11.984 12.262C12.363 12.428 12.805 12.255 12.971 11.876C13.132 11.508 13.5 11.25 13.927 11.25C14.502 11.25 14.969 11.717 14.969 12.292C14.969 12.774 14.641 13.18 14.196 13.299C13.633 13.418 13.228 13.896 13.202 14.46C13.179 14.622 13.177 14.79 13.177 14.79V14.801C13.177 15.202 13.492 15.53 13.888 15.55Z" fill="#C9C9C9"/>
<path d="M14.677 16.75C14.677 17.1642 14.3412 17.5 13.927 17.5C13.5128 17.5 13.177 17.1642 13.177 16.75C13.177 16.3358 13.5128 16 13.927 16C14.3412 16 14.677 16.3358 14.677 16.75Z" fill="#C9C9C9"/>
<path fill-rule="evenodd" clip-rule="evenodd" d="M16.7933 6.26957C15.4741 3.87445 12.9251 2.25 10 2.25C5.723 2.25 2.25 5.723 2.25 10C2.25 11.446 2.647 12.8 3.34 13.958L3.343 13.964C3.375 14.015 3.387 14.076 3.377 14.136L3.039 16.095C2.997 16.334 3.075 16.578 3.246 16.751C3.417 16.923 3.661 17.002 3.9 16.962C3.9 16.962 5.221 16.744 5.882 16.638H5.886C5.944 16.628 6.003 16.64 6.054 16.67L6.06 16.674C6.42418 16.8894 6.80744 17.0759 7.20663 17.2303C8.5258 19.6255 11.0749 21.25 14 21.25C15.438 21.25 16.785 20.857 17.94 20.174C17.942 20.173 17.944 20.171 17.946 20.17C17.997 20.14 18.056 20.128 18.114 20.138H18.118C18.779 20.244 20.1 20.462 20.1 20.462C20.339 20.502 20.583 20.423 20.754 20.251C20.925 20.078 21.003 19.834 20.961 19.595L20.623 17.636C20.613 17.576 20.625 17.515 20.657 17.464L20.66 17.458C21.353 16.3 21.75 14.946 21.75 13.5C21.75 10.2076 19.6919 7.39157 16.7933 6.26957ZM14.6019 5.77308C14.4033 5.75779 14.2025 5.75 14 5.75C9.723 5.75 6.25 9.223 6.25 13.5C6.25 14.0881 6.31566 14.661 6.44004 15.2117C6.18352 15.1326 5.91105 15.1132 5.645 15.157C5.47815 15.1837 5.26966 15.2177 5.05083 15.2533L4.696 15.311L4.855 14.389C4.926 13.972 4.844 13.543 4.627 13.187C4.069 12.255 3.75 11.165 3.75 10C3.75 6.551 6.551 3.75 10 3.75C11.8198 3.75 13.4592 4.52978 14.6019 5.77308ZM20.25 13.5C20.25 10.051 17.449 7.25 14 7.25C10.551 7.25 7.75 10.051 7.75 13.5C7.75 16.949 10.551 19.75 14 19.75C15.159 19.75 16.245 19.434 17.169 18.887C17.526 18.671 17.948 18.59 18.355 18.657C18.5218 18.6837 18.7303 18.7177 18.9491 18.7533L19.304 18.811L19.145 17.889C19.074 17.472 19.156 17.043 19.373 16.687C19.931 15.755 20.25 14.665 20.25 13.5Z" fill="#C9C9C9"/>
</svg>
