<svg width="20" height="20" viewBox="0 0 20 20" fill="none" xmlns="http://www.w3.org/2000/svg">
<path d="M18.9999 10.0002C18.755 10.0006 18.5186 9.91075 18.3359 9.7478L9.99991 2.33813L1.66397 9.7478C1.46571 9.92392 1.2056 10.0141 0.940869 9.99841C0.676139 9.98275 0.428472 9.86257 0.252352 9.6643C0.0762327 9.46604 -0.013913 9.20593 0.00174632 8.9412C0.0174056 8.67647 0.137587 8.4288 0.335852 8.25268L9.33585 0.252682C9.51876 0.08992 9.75507 0 9.99991 0C10.2448 0 10.4811 0.08992 10.664 0.252682L19.664 8.25268C19.8156 8.38738 19.9226 8.56498 19.971 8.76194C20.0193 8.95889 20.0066 9.16588 19.9346 9.35545C19.8625 9.54503 19.7346 9.70821 19.5676 9.82337C19.4007 9.93853 19.2027 10.0002 18.9999 10.0002Z" fill="#A1BDFF"/>
<path d="M11.9999 11.0002H10.9999V10.0002C10.9999 9.73503 10.8946 9.48067 10.707 9.29314C10.5195 9.1056 10.2651 9.00024 9.99991 9.00024C9.7347 9.00024 9.48034 9.1056 9.29281 9.29314C9.10527 9.48067 8.99991 9.73503 8.99991 10.0002V11.0002H7.99991C7.7347 11.0002 7.48034 11.1056 7.29281 11.2931C7.10527 11.4807 6.99991 11.735 6.99991 12.0002C6.99991 12.2655 7.10527 12.5198 7.29281 12.7073C7.48034 12.8949 7.7347 13.0002 7.99991 13.0002H8.99991V14.0002C8.99991 14.2655 9.10527 14.5198 9.29281 14.7073C9.48034 14.8949 9.7347 15.0002 9.99991 15.0002C10.2651 15.0002 10.5195 14.8949 10.707 14.7073C10.8946 14.5198 10.9999 14.2655 10.9999 14.0002V13.0002H11.9999C12.2651 13.0002 12.5195 12.8949 12.707 12.7073C12.8946 12.5198 12.9999 12.2655 12.9999 12.0002C12.9999 11.735 12.8946 11.4807 12.707 11.2931C12.5195 11.1056 12.2651 11.0002 11.9999 11.0002Z" fill="#63ACFF"/>
<path d="M9.99991 2.33813L1.99991 9.44924V19.0002C1.99988 19.1316 2.02572 19.2616 2.07596 19.383C2.12621 19.5043 2.19986 19.6146 2.29273 19.7074C2.3856 19.8003 2.49585 19.8739 2.61719 19.9242C2.73853 19.9744 2.86858 20.0003 2.99991 20.0002H16.9999C17.1312 20.0003 17.2613 19.9744 17.3826 19.9242C17.504 19.8739 17.6142 19.8003 17.7071 19.7074C17.8 19.6146 17.8736 19.5043 17.9239 19.383C17.9741 19.2616 17.9999 19.1316 17.9999 19.0002V9.44924L9.99991 2.33813ZM11.9999 13.0002H10.9999V14.0002C10.9999 14.2655 10.8946 14.5198 10.707 14.7073C10.5195 14.8949 10.2651 15.0002 9.99991 15.0002C9.7347 15.0002 9.48034 14.8949 9.29281 14.7073C9.10527 14.5198 8.99991 14.2655 8.99991 14.0002V13.0002H7.99991C7.7347 13.0002 7.48034 12.8949 7.29281 12.7073C7.10527 12.5198 6.99991 12.2655 6.99991 12.0002C6.99991 11.735 7.10527 11.4807 7.29281 11.2931C7.48034 11.1056 7.7347 11.0002 7.99991 11.0002H8.99991V10.0002C8.99991 9.73503 9.10527 9.48067 9.29281 9.29314C9.48034 9.1056 9.7347 9.00024 9.99991 9.00024C10.2651 9.00024 10.5195 9.1056 10.707 9.29314C10.8946 9.48067 10.9999 9.73503 10.9999 10.0002V11.0002H11.9999C12.2651 11.0002 12.5195 11.1056 12.707 11.2931C12.8946 11.4807 12.9999 11.735 12.9999 12.0002C12.9999 12.2655 12.8946 12.5198 12.707 12.7073C12.5195 12.8949 12.2651 13.0002 11.9999 13.0002Z" fill="#C0D9FF"/>
</svg>
