<svg width="24" height="24" viewBox="0 0 24 24" fill="none" xmlns="http://www.w3.org/2000/svg">
<path fill-rule="evenodd" clip-rule="evenodd" d="M21 8H3V16C3 18.2091 4.79086 20 7 20H17C19.2091 20 21 18.2091 21 16V8ZM7.5 12C6.94772 12 6.5 12.4477 6.5 13V14.5C6.5 15.0523 6.94772 15.5 7.5 15.5H9C9.55228 15.5 10 15.0523 10 14.5V13C10 12.4477 9.55229 12 9 12H7.5Z" fill="#929292"/>
<path fill-rule="evenodd" clip-rule="evenodd" d="M2.25 16V8C2.25 5.377 4.377 3.25 7 3.25C9.977 3.25 14.023 3.25 17 3.25C19.623 3.25 21.75 5.377 21.75 8V16C21.75 18.623 19.623 20.75 17 20.75C14.023 20.75 9.977 20.75 7 20.75C4.377 20.75 2.25 18.623 2.25 16ZM20.25 8.75H3.75V16C3.75 17.795 5.205 19.25 7 19.25C9.977 19.25 14.023 19.25 17 19.25C18.795 19.25 20.25 17.795 20.25 16V8.75ZM20.163 7.25C19.824 5.817 18.537 4.75 17 4.75C14.023 4.75 9.977 4.75 7 4.75C5.463 4.75 4.176 5.817 3.837 7.25H20.163Z" fill="#C9C9C9"/>
<path fill-rule="evenodd" clip-rule="evenodd" d="M10.7502 12.9995C10.7502 12.0335 9.96623 11.2495 9.00023 11.2495C8.53023 11.2495 7.97023 11.2495 7.50023 11.2495C6.53423 11.2495 5.75023 12.0335 5.75023 12.9995C5.75023 13.4695 5.75023 14.0295 5.75023 14.4995C5.75023 15.4655 6.53423 16.2495 7.50023 16.2495C7.97023 16.2495 8.53023 16.2495 9.00023 16.2495C9.96623 16.2495 10.7502 15.4655 10.7502 14.4995V12.9995ZM9.25023 12.9995C9.25023 12.8615 9.13823 12.7495 9.00023 12.7495C8.53023 12.7495 7.97023 12.7495 7.50023 12.7495C7.36223 12.7495 7.25023 12.8615 7.25023 12.9995C7.25023 13.4695 7.25023 14.0295 7.25023 14.4995C7.25023 14.6375 7.36223 14.7495 7.50023 14.7495C7.97023 14.7495 8.53023 14.7495 9.00023 14.7495C9.13823 14.7495 9.25023 14.6375 9.25023 14.4995V12.9995Z" fill="#C9C9C9"/>
</svg>
