<svg width="24" height="24" viewBox="0 0 24 24" fill="none" xmlns="http://www.w3.org/2000/svg">
<path fill-rule="evenodd" clip-rule="evenodd" d="M21.75 7C21.75 5.74 21.25 4.532 20.359 3.641C19.468 2.75 18.26 2.25 17 2.25H7C5.74 2.25 4.532 2.75 3.641 3.641C2.75 4.532 2.25 5.74 2.25 7V17C2.25 18.26 2.75 19.468 3.641 20.359C4.532 21.25 5.74 21.75 7 21.75H17C18.26 21.75 19.468 21.25 20.359 20.359C21.25 19.468 21.75 18.26 21.75 17V7Z" fill="#929292"/>
<path fill-rule="evenodd" clip-rule="evenodd" d="M21.75 7C21.75 5.74 21.25 4.532 20.359 3.641C19.468 2.75 18.26 2.25 17 2.25H7C5.74 2.25 4.532 2.75 3.641 3.641C2.75 4.532 2.25 5.74 2.25 7V17C2.25 18.26 2.75 19.468 3.641 20.359C4.532 21.25 5.74 21.75 7 21.75H17C18.26 21.75 19.468 21.25 20.359 20.359C21.25 19.468 21.75 18.26 21.75 17V7ZM20.25 7V17C20.25 17.862 19.908 18.689 19.298 19.298C18.689 19.908 17.862 20.25 17 20.25H7C6.138 20.25 5.311 19.908 4.702 19.298C4.092 18.689 3.75 17.862 3.75 17V7C3.75 6.138 4.092 5.311 4.702 4.702C5.311 4.092 6.138 3.75 7 3.75H17C17.862 3.75 18.689 4.092 19.298 4.702C19.908 5.311 20.25 6.138 20.25 7Z" fill="#C9C9C9"/>
<path fill-rule="evenodd" clip-rule="evenodd" d="M8.99457 15.2124C8.66647 14.8843 8.48262 14.4388 8.48262 13.9749C8.48192 12.3507 8.48262 9.31794 8.48262 9.31794C8.48192 8.90429 8.8185 8.5677 9.23216 8.56841C9.64581 8.5677 9.9824 8.90429 9.98169 9.31794L9.9824 13.1639L14.3587 8.78761C14.6514 8.49487 15.1266 8.49487 15.4193 8.78761C15.7121 9.08035 15.7121 9.55553 15.4193 9.84827L11.0431 14.2246L14.889 14.2253C15.3027 14.2246 15.6393 14.5611 15.6385 14.9748C15.6393 15.3885 15.3027 15.725 14.889 15.7243C14.889 15.7243 11.8562 15.725 10.232 15.7243C9.76814 15.7243 9.32267 15.5405 8.99457 15.2124Z" fill="#C9C9C9"/>
</svg>
