<svg width="24" height="24" viewBox="0 0 24 24" fill="none" xmlns="http://www.w3.org/2000/svg">
<path fill-rule="evenodd" clip-rule="evenodd" d="M8.37004 5.721C8.60204 5.587 8.74504 5.34 8.74504 5.072V4.5C8.74504 3.903 8.98204 3.331 9.40404 2.909C9.82604 2.487 10.398 2.25 10.995 2.25H12.995C13.592 2.25 14.164 2.487 14.586 2.909C15.008 3.331 15.245 3.903 15.245 4.5V5.072C15.245 5.34 15.388 5.587 15.62 5.721C15.852 5.855 16.138 5.855 16.37 5.721C16.539 5.624 16.706 5.528 16.865 5.435C17.382 5.137 17.996 5.056 18.573 5.211C19.149 5.365 19.641 5.742 19.939 6.259C20.097 6.533 20.268 6.829 20.439 7.125C20.61 7.421 20.781 7.717 20.939 7.991C21.237 8.508 21.318 9.122 21.164 9.698C21.009 10.275 20.632 10.766 20.115 11.065C19.956 11.157 19.789 11.253 19.62 11.35C19.388 11.484 19.245 11.732 19.245 12C19.245 12.268 19.388 12.516 19.62 12.65C19.789 12.747 19.956 12.843 20.115 12.935C20.632 13.234 21.009 13.725 21.164 14.302C21.318 14.878 21.237 15.492 20.939 16.009C20.781 16.283 20.61 16.579 20.439 16.875C20.268 17.171 20.097 17.467 19.939 17.741C19.641 18.258 19.149 18.635 18.573 18.789C17.996 18.944 17.382 18.863 16.865 18.565C16.706 18.472 16.539 18.376 16.37 18.279C16.138 18.145 15.852 18.145 15.62 18.279C15.388 18.413 15.245 18.66 15.245 18.928V19.5C15.245 20.097 15.008 20.669 14.586 21.091C14.164 21.513 13.592 21.75 12.995 21.75H10.995C10.398 21.75 9.82604 21.513 9.40404 21.091C8.98204 20.669 8.74504 20.097 8.74504 19.5V18.928C8.74504 18.66 8.60204 18.413 8.37004 18.279C8.13804 18.145 7.85204 18.145 7.62004 18.279C7.45104 18.376 7.28504 18.472 7.12504 18.565C6.60804 18.863 5.99404 18.944 5.41804 18.789C4.84104 18.635 4.35004 18.258 4.05104 17.741C3.73504 17.193 3.36804 16.557 3.05104 16.009C2.75304 15.492 2.67204 14.878 2.82704 14.302C2.98104 13.725 3.35804 13.234 3.87504 12.935C3.94322 12.8958 4.01249 12.8559 4.08262 12.8154C4.17706 12.761 4.27305 12.7057 4.37004 12.65C4.60204 12.516 4.74504 12.268 4.74504 12C4.74504 11.732 4.60204 11.484 4.37004 11.35C4.27305 11.2943 4.17706 11.239 4.08262 11.1846C4.01249 11.1441 3.94322 11.1042 3.87504 11.065C3.35804 10.766 2.98104 10.275 2.82704 9.698C2.67204 9.122 2.75304 8.508 3.05104 7.991C3.36804 7.443 3.73504 6.807 4.05104 6.259C4.35004 5.742 4.84104 5.365 5.41804 5.211C5.99404 5.056 6.60804 5.137 7.12504 5.435C7.28504 5.528 7.45104 5.624 7.62004 5.721C7.85204 5.855 8.13804 5.855 8.37004 5.721ZM8.74512 12.0002C8.74512 10.2062 10.2011 8.75024 11.9951 8.75024C13.7891 8.75024 15.2451 10.2062 15.2451 12.0002C15.2451 13.7942 13.7891 15.2502 11.9951 15.2502C10.2011 15.2502 8.74512 13.7942 8.74512 12.0002Z" fill="#929292"/>
<path fill-rule="evenodd" clip-rule="evenodd" d="M11.9949 8.75023C10.2009 8.75023 8.74488 10.2062 8.74488 12.0002C8.74488 13.7942 10.2009 15.2502 11.9949 15.2502C13.7889 15.2502 15.2449 13.7942 15.2449 12.0002C15.2449 10.2062 13.7889 8.75023 11.9949 8.75023ZM11.9949 10.2502C12.9609 10.2502 13.7449 11.0342 13.7449 12.0002C13.7449 12.9662 12.9609 13.7502 11.9949 13.7502C11.0289 13.7502 10.2449 12.9662 10.2449 12.0002C10.2449 11.0342 11.0289 10.2502 11.9949 10.2502Z" fill="#C9C9C9"/>
<path fill-rule="evenodd" clip-rule="evenodd" d="M8.74504 5.072C8.74504 5.34 8.60204 5.587 8.37004 5.721C8.13804 5.855 7.85204 5.855 7.62004 5.721C7.45104 5.624 7.28504 5.528 7.12504 5.435C6.60804 5.137 5.99404 5.056 5.41804 5.211C4.84104 5.365 4.35004 5.742 4.05104 6.259C3.73504 6.807 3.36804 7.443 3.05104 7.991C2.75304 8.508 2.67204 9.122 2.82704 9.698C2.98104 10.275 3.35804 10.766 3.87504 11.065C4.03504 11.157 4.20104 11.253 4.37004 11.35C4.60204 11.484 4.74504 11.732 4.74504 12C4.74504 12.268 4.60204 12.516 4.37004 12.65C4.20104 12.747 4.03504 12.843 3.87504 12.935C3.35804 13.234 2.98104 13.725 2.82704 14.302C2.67204 14.878 2.75304 15.492 3.05104 16.009C3.36804 16.557 3.73504 17.193 4.05104 17.741C4.35004 18.258 4.84104 18.635 5.41804 18.789C5.99404 18.944 6.60804 18.863 7.12504 18.565C7.28504 18.472 7.45104 18.376 7.62004 18.279C7.85204 18.145 8.13804 18.145 8.37004 18.279C8.60204 18.413 8.74504 18.66 8.74504 18.928C8.74504 19.123 8.74504 19.316 8.74504 19.5C8.74504 20.097 8.98204 20.669 9.40404 21.091C9.82604 21.513 10.398 21.75 10.995 21.75H12.995C13.592 21.75 14.164 21.513 14.586 21.091C15.008 20.669 15.245 20.097 15.245 19.5V18.928C15.245 18.66 15.388 18.413 15.62 18.279C15.852 18.145 16.138 18.145 16.37 18.279C16.539 18.376 16.706 18.472 16.865 18.565C17.382 18.863 17.996 18.944 18.573 18.789C19.149 18.635 19.641 18.258 19.939 17.741C20.255 17.193 20.623 16.557 20.939 16.009C21.237 15.492 21.318 14.878 21.164 14.302C21.009 13.725 20.632 13.234 20.115 12.935C19.956 12.843 19.789 12.747 19.62 12.65C19.388 12.516 19.245 12.268 19.245 12C19.245 11.732 19.388 11.484 19.62 11.35C19.789 11.253 19.956 11.157 20.115 11.065C20.632 10.766 21.009 10.275 21.164 9.698C21.318 9.122 21.237 8.508 20.939 7.991C20.623 7.443 20.255 6.807 19.939 6.259C19.641 5.742 19.149 5.365 18.573 5.211C17.996 5.056 17.382 5.137 16.865 5.435C16.706 5.528 16.539 5.624 16.37 5.721C16.138 5.855 15.852 5.855 15.62 5.721C15.388 5.587 15.245 5.34 15.245 5.072C15.245 4.877 15.245 4.684 15.245 4.5C15.245 3.903 15.008 3.331 14.586 2.909C14.164 2.487 13.592 2.25 12.995 2.25H10.995C10.398 2.25 9.82604 2.487 9.40404 2.909C8.98204 3.331 8.74504 3.903 8.74504 4.5V5.072ZM10.245 5.072V4.5C10.245 4.301 10.324 4.11 10.465 3.97C10.606 3.829 10.796 3.75 10.995 3.75H12.995C13.194 3.75 13.385 3.829 13.526 3.97C13.666 4.11 13.745 4.301 13.745 4.5V5.072C13.745 5.876 14.174 6.618 14.87 7.02C15.566 7.422 16.424 7.422 17.12 7.02C17.289 6.923 17.456 6.827 17.615 6.734C17.788 6.635 17.992 6.608 18.184 6.66C18.377 6.711 18.54 6.837 18.64 7.009C18.956 7.557 19.324 8.193 19.64 8.741C19.739 8.913 19.766 9.118 19.715 9.31C19.663 9.502 19.538 9.666 19.365 9.766C19.206 9.858 19.039 9.954 18.87 10.051C18.174 10.453 17.745 11.196 17.745 12C17.745 12.804 18.174 13.547 18.87 13.949C19.039 14.046 19.206 14.142 19.365 14.234C19.538 14.334 19.663 14.498 19.715 14.69C19.766 14.882 19.739 15.087 19.64 15.259C19.324 15.807 18.956 16.443 18.64 16.991C18.54 17.163 18.377 17.289 18.184 17.34C17.992 17.392 17.788 17.365 17.615 17.266C17.456 17.173 17.289 17.077 17.12 16.98C16.424 16.578 15.566 16.578 14.87 16.98C14.174 17.382 13.745 18.124 13.745 18.928C13.745 19.123 13.745 19.316 13.745 19.5C13.745 19.699 13.666 19.89 13.526 20.03C13.385 20.171 13.194 20.25 12.995 20.25H10.995C10.796 20.25 10.606 20.171 10.465 20.03C10.324 19.89 10.245 19.699 10.245 19.5V18.928C10.245 18.124 9.81604 17.382 9.12004 16.98C8.42404 16.578 7.56604 16.578 6.87004 16.98C6.70104 17.077 6.53504 17.173 6.37504 17.266C6.20304 17.365 5.99804 17.392 5.80604 17.34C5.61404 17.289 5.45004 17.163 5.35004 16.991C5.03404 16.443 4.66704 15.807 4.35004 15.259C4.25104 15.087 4.22404 14.882 4.27604 14.69C4.32704 14.498 4.45304 14.334 4.62504 14.234C4.78504 14.142 4.95104 14.046 5.12004 13.949C5.81604 13.547 6.24504 12.804 6.24504 12C6.24504 11.196 5.81604 10.453 5.12004 10.051C4.95104 9.954 4.78504 9.858 4.62504 9.766C4.45304 9.666 4.32704 9.502 4.27604 9.31C4.22404 9.118 4.25104 8.913 4.35004 8.741C4.66704 8.193 5.03404 7.557 5.35004 7.009C5.45004 6.837 5.61404 6.711 5.80604 6.66C5.99804 6.608 6.20304 6.635 6.37504 6.734C6.53504 6.827 6.70104 6.923 6.87004 7.02C7.56604 7.422 8.42404 7.422 9.12004 7.02C9.81604 6.618 10.245 5.876 10.245 5.072Z" fill="#C9C9C9"/>
</svg>
